<?xml version="1.0"?>
<svg xmlns="http://www.w3.org/2000/svg" xmlns:xlink="http://www.w3.org/1999/xlink" xmlns:svgjs="http://svgjs.com/svgjs" version="1.1" width="512" height="512" x="0" y="0" viewBox="0 0 74 74" style="enable-background:new 0 0 512 512" xml:space="preserve" class=""><g><path xmlns="http://www.w3.org/2000/svg" d="m66.417 60.292h-58.834a5.59 5.59 0 0 1 -5.583-5.584v-4a1 1 0 0 1 1-1h68a1 1 0 0 1 1 1v4a5.59 5.59 0 0 1 -5.583 5.584zm-62.417-8.584v3a3.587 3.587 0 0 0 3.583 3.584h58.834a3.587 3.587 0 0 0 3.583-3.584v-3z" fill="#ffffff" data-original="#000000" style="" class=""/><path xmlns="http://www.w3.org/2000/svg" d="m42.323 55.708h-10.646a2.471 2.471 0 0 1 -2.469-2.468v-2.532a1 1 0 0 1 1-1h13.584a1 1 0 0 1 1 1v2.532a2.471 2.471 0 0 1 -2.469 2.468zm-11.115-4v1.532a.469.469 0 0 0 .469.468h10.646a.469.469 0 0 0 .469-.468v-1.532z" fill="#ffffff" data-original="#000000" style="" class=""/><path xmlns="http://www.w3.org/2000/svg" d="m65.464 51.708h-56.928a1 1 0 0 1 -1-1v-32.893a4.112 4.112 0 0 1 4.107-4.107h50.714a4.112 4.112 0 0 1 4.107 4.107v32.893a1 1 0 0 1 -1 1zm-55.928-2h54.928v-31.893a2.11 2.11 0 0 0 -2.107-2.107h-50.714a2.11 2.11 0 0 0 -2.107 2.107z" fill="#ffffff" data-original="#000000" style="" class=""/></g></svg>
